<?xml version="1.0" encoding="UTF-8"?>
<svg xmlns="http://www.w3.org/2000/svg" width="1080pt" height="1080pt" viewBox="365 267 350 546">
<path fill="#000000" fill-rule="evenodd" d="M 673.500 661.750 L 670.250 663.000 L 668.000 666.750 L 667.750 705.250 L 669.000 709.250 L 671.750 711.250 L 674.250 711.750 L 677.750 710.500 L 680.250 706.250 L 680.250 667.250 L 677.750 663.000 Z M 673.250 426.750 L 670.500 427.750 L 667.750 432.000 L 667.750 471.500 L 668.750 474.250 L 670.750 476.250 L 674.250 477.250 L 677.500 476.250 L 679.500 474.250 L 680.500 471.500 L 680.500 432.000 L 678.000 428.000 Z M 431.750 288.500 L 429.750 290.500 L 428.750 293.250 L 428.750 305.250 L 417.000 302.250 L 412.750 303.500 L 410.000 308.000 L 409.750 319.250 L 390.750 315.250 L 386.500 317.750 L 385.000 321.250 L 385.000 707.000 L 385.750 709.000 L 388.000 711.250 L 393.250 713.250 L 658.500 791.250 L 670.000 792.250 L 677.750 791.000 L 685.250 788.500 L 691.750 783.750 L 694.750 777.250 L 694.750 375.750 L 693.750 373.000 L 689.500 368.250 L 685.500 365.500 L 668.250 358.250 L 438.250 288.000 L 434.500 287.500 Z M 398.000 329.500 L 660.000 389.500 L 673.750 390.250 L 682.750 388.750 L 682.000 775.500 L 680.500 776.750 L 671.750 779.500 L 660.750 778.750 L 397.750 701.500 Z M 422.500 315.500 L 475.250 328.250 L 642.750 371.750 L 422.500 322.000 Z M 441.250 302.250 L 606.250 352.250 L 441.500 309.000 Z"/>
</svg>
